<?xml version="1.0" encoding="iso-8859-1"?>
<!-- Uploaded to: SVG Repo, www.svgrepo.com, Generator: SVG Repo Mixer Tools -->
<svg version="1.1" id="Layer_1" xmlns="http://www.w3.org/2000/svg" xmlns:xlink="http://www.w3.org/1999/xlink" 
	 viewBox="0 0 511.998 511.998" xml:space="preserve">
<rect x="232.799" y="254.597" style="fill:#328777;" width="34.009" height="257.401"/>
<rect x="232.799" y="299.625" style="fill:#266659;" width="34.009" height="57.031"/>
<g>
	<path style="fill:#DDB200;" d="M293.447,270.252c-11.457,26.254-43.917,68.004-43.917,68.004s-33.872-46.852-42.827-73.029
		l0.378-21.685l86.805,1.513L293.447,270.252z"/>
	<path style="fill:#DDB200;" d="M295.574,71.523C285.884,45.097,253.281,0,253.281,0s-32.458,41.751-43.916,68.004
		c0,0-0.378,21.669-0.404,23.162c-0.026,1.492,86.244,1.504,86.244,1.504L295.574,71.523z"/>
	<path style="fill:#DDB200;" d="M153.806,211.228c-26.035-10.472-70.288-44.874-70.288-44.874s42.856-30.983,69.492-41.518
		l25.789,0.45l-1.506,86.353L153.806,211.228z"/>
	<path style="fill:#DDB200;" d="M350.552,213.119c26.535-10.081,68.741-41.216,68.741-41.216s-42.194-32.804-68.421-44.097
		l-21.347-0.373l-1.514,86.831L350.552,213.119z"/>
</g>
<g style="opacity:0.24;">
	<path style="fill:#663A00;" d="M294.848,245.055l-86.805-1.513l-0.378,21.686c0.932,2.725,2.137,5.675,3.542,8.771
		c12.886,5.106,26.932,7.913,41.634,7.913c13.868,0,27.152-2.502,39.43-7.07c0.772-1.572,1.489-3.107,2.137-4.59L294.848,245.055z"
		/>
	<path style="fill:#663A00;" d="M209.924,91.165c-0.026,1.492,86.244,1.504,86.244,1.504l0.368-21.147
		c-0.971-2.647-2.174-5.484-3.549-8.443c-12.477-4.739-26.006-7.342-40.144-7.342c-14.171,0-27.73,2.614-40.23,7.374
		c-0.829,1.678-1.596,3.314-2.284,4.892C210.327,68.004,209.95,89.674,209.924,91.165z"/>
	<path style="fill:#663A00;" d="M178.256,211.638l1.506-86.353l-25.789-0.45c-2.071,0.819-4.241,1.762-6.481,2.804
		c-4.994,12.763-7.737,26.653-7.737,41.184c0,13.567,2.392,26.575,6.773,38.628c2.885,1.456,5.654,2.735,8.241,3.776
		L178.256,211.638z"/>
	<path style="fill:#663A00;" d="M330.488,127.434l-1.514,86.831l22.54-1.146c2.092-0.795,4.281-1.721,6.539-2.752
		c5.082-12.861,7.875-26.876,7.875-41.542c0-13.07-2.225-25.619-6.304-37.298c-2.706-1.4-5.319-2.656-7.791-3.72L330.488,127.434z"
		/>
</g>
<path style="fill:#7CD8A4;" d="M266.913,426.015c0,0,51.828,30.838,96.443,14.878s65.124-72.674,65.124-72.674
	s-51.828-30.838-96.443-14.878S266.913,426.015,266.913,426.015z"/>
<path style="fill:#328777;" d="M266.913,433.865c-3.222,0-6.242-1.999-7.39-5.207c-1.461-4.081,0.666-8.573,4.746-10.033
	l80.783-28.897c4.081-1.461,8.572,0.664,10.033,4.746s-0.666,8.573-4.746,10.033l-80.783,28.897
	C268.684,433.716,267.791,433.865,266.913,433.865z"/>
<g>
	<path style="fill:#FFCD00;" d="M168.892,165.158c-17.818-17.818-31.049-110.369-31.049-110.369s92.553,13.231,110.369,31.048
		L168.892,165.158z"/>
	<path style="fill:#FFCD00;" d="M253.633,87.751c17.818-17.818,110.369-31.049,110.369-31.049s-13.231,92.552-31.049,110.369
		L253.633,87.751z"/>
	<path style="fill:#FFCD00;" d="M251.88,248.145c-17.818,17.818-110.369,31.049-110.369,31.049s13.231-92.552,31.049-110.369
		L251.88,248.145z"/>
	<path style="fill:#FFCD00;" d="M333.919,173.1c17.818,17.818,31.049,110.369,31.049,110.369s-92.552-13.231-110.369-31.049
		L333.919,173.1z"/>
</g>
<circle style="fill:#FFEB99;" cx="251.885" cy="168.821" r="76.913"/>
<g>
	<path style="fill:#663A00;" d="M317.416,222.564c0.044-0.05,0.089-0.1,0.131-0.153c23.934-29.285,25.29-70.961,4.107-101.672
		c-0.521-1.57-1.525-2.914-2.835-3.868c-2.149-2.766-4.469-5.439-7.008-7.979c-2.388-2.387-4.906-4.594-7.514-6.656
		c-0.249-0.218-0.508-0.427-0.784-0.612c-14.742-11.375-32.708-17.556-51.634-17.556c-18.816,0-36.685,6.108-51.377,17.355
		c-0.276,0.186-0.535,0.393-0.784,0.612c-2.701,2.118-5.304,4.391-7.77,6.856c-16.008,16.008-24.824,37.293-24.824,59.931
		s8.816,43.923,24.824,59.931c2.456,2.456,5.039,4.707,7.706,6.798c0.293,0.263,0.604,0.506,0.934,0.723
		c9.8,7.462,20.86,12.503,32.372,15.121c1.014,0.478,2.143,0.753,3.338,0.753c0.086,0,0.168-0.01,0.253-0.013
		c5.064,0.924,10.194,1.402,15.327,1.402c5.153,0,10.303-0.481,15.386-1.413c0.15,0.008,0.298,0.022,0.451,0.022
		c1.28,0,2.484-0.313,3.552-0.856c14.867-3.47,28.976-10.973,40.543-22.54C313.802,226.766,315.665,224.696,317.416,222.564z
		 M194.047,131.063h2.987v15.721h-10.618C188.273,141.251,190.827,135.973,194.047,131.063z M244.148,162.481h15.721v15.721h-15.721
		V162.481z M228.452,178.202h-15.721v-15.721h15.721V178.202z M275.565,162.481h15.721v15.721h-15.721V162.481z M306.982,162.481
		h13.629c0.478,5.233,0.359,10.509-0.35,15.721h-13.279L306.982,162.481L306.982,162.481z M306.982,146.785v-15.721h2.72
		c3.241,4.959,5.769,10.248,7.602,15.721H306.982z M291.286,115.367h-15.721v-11.443c5.557,2.025,10.831,4.776,15.721,8.19V115.367z
		 M291.286,131.063v15.721h-15.721v-15.721C275.565,131.063,291.286,131.063,291.286,131.063z M259.869,146.785h-15.721v-15.721
		h15.721V146.785z M228.452,146.785h-15.721v-15.721h15.721V146.785z M212.73,115.367v-3.434c4.894-3.383,10.167-6.11,15.721-8.108
		v11.541H212.73V115.367z M197.034,162.481v15.721h-13.57c-0.416-3.084-0.644-6.213-0.644-9.377c0-2.132,0.107-4.246,0.296-6.345
		h13.918V162.481z M197.034,193.898v15.721h-0.885c-3.58-4.869-6.466-10.151-8.633-15.721H197.034z M212.73,225.317h15.721v8.454
		c-5.493-1.971-10.778-4.667-15.721-8.072V225.317z M212.73,209.62V193.9h15.721v15.721H212.73z M244.148,193.898h15.721v15.721
		h-15.721V193.898z M275.565,193.898h15.721v15.721h-15.721V193.898z M291.286,225.317v0.204
		c-4.939,3.436-10.225,6.157-15.721,8.155v-8.36h15.721V225.317z M306.982,209.62V193.9h9.224
		c-2.139,5.511-4.995,10.804-8.599,15.721H306.982z M259.869,100.239v15.129h-15.721v-15.161c2.55-0.283,5.129-0.442,7.732-0.442
		C254.571,99.766,257.234,99.937,259.869,100.239z M244.148,237.403v-12.086h15.721v12.057c-2.654,0.306-5.32,0.478-7.988,0.478
		C249.298,237.852,246.717,237.691,244.148,237.403z"/>
	<g style="opacity:0.21;">
		<path style="fill:#663A00;" d="M248.475,85.838c-4.745-4.745-14.788-9.164-26.973-13.094c-31.04,9.89-55.552,34.401-65.442,65.443
			c3.93,12.184,8.349,22.228,13.094,26.972l27.541-53.271L248.475,85.838z"/>
		<path style="fill:#663A00;" d="M333.216,167.071c5.25-5.25,10.1-16.989,14.333-30.936c-10.068-29.389-33.329-52.65-62.718-62.718
			c-13.946,4.232-25.686,9.083-30.936,14.332l53.087,24.137L333.216,167.071z"/>
		<path style="fill:#663A00;" d="M172.821,168.825c-5.703,5.703-10.934,19.066-15.414,34.596
			c10.176,27.855,32.285,49.964,60.138,60.139c15.53-4.48,28.894-9.712,34.596-15.414l-55.446-25.762L172.821,168.825z"/>
		<path style="fill:#663A00;" d="M254.86,252.42c4.68,4.68,14.519,9.043,26.48,12.933c31.124-9.402,55.897-33.44,66.305-64.115
			c-4.022-12.706-8.57-23.244-13.464-28.14l-27.92,50.107L254.86,252.42z"/>
	</g>
</g>
</svg>