<?xml version="1.0" encoding="iso-8859-1"?>
<!-- Uploaded to: SVG Repo, www.svgrepo.com, Generator: SVG Repo Mixer Tools -->
<!DOCTYPE svg PUBLIC "-//W3C//DTD SVG 1.1//EN" "http://www.w3.org/Graphics/SVG/1.1/DTD/svg11.dtd">
<svg height="800px" width="800px" version="1.1" id="Capa_1" xmlns="http://www.w3.org/2000/svg" xmlns:xlink="http://www.w3.org/1999/xlink" 
	 viewBox="0 0 297.5 297.5" xml:space="preserve">
<g>
	<g id="XMLID_45_">
		<g>
			<path style="fill:#ACAB42;" d="M124.73,221.86c5.94,3.61,9.89,9.29,11.98,17.24c-6.36,2.36-17.1,4.98-28.18,1.55
				c-9.73-3.02-18.2-10.2-25.27-21.41C95.5,216.51,113.2,214.82,124.73,221.86z"/>
			<path style="fill:#ACAB42;" d="M178.63,218.36c5-2.67,11.04-3.5,18.05-2.5c-4.6,6.47-11.18,13.45-18.52,15.23
				c-3.45,0.83-6.96,0.42-10.63-1.25C169.61,226.03,173.12,221.3,178.63,218.36z"/>
			<path style="fill:#DB9D3C;" d="M188.53,154.7c1,1.8,1.56,8.3,1.54,15.92c-6.68-3.67-12.1-7.31-13.18-9.05
				c-0.92-1.56-1.17-3.38-0.72-5.12c0.45-1.75,1.56-3.22,3.11-4.14c1.05-0.62,2.23-0.93,3.42-0.93c0.57,0,1.14,0.07,1.7,0.21
				C186.15,152.05,187.61,153.15,188.53,154.7z"/>
			<path style="fill:#DB9D3C;" d="M219.41,140.88c-7.63,0.14-14.13-0.34-15.94-1.32c-1.56-0.89-2.69-2.35-3.16-4.09
				c-0.48-1.74-0.25-3.56,0.65-5.13c0.9-1.56,2.35-2.69,4.09-3.16c0.59-0.16,1.19-0.24,1.79-0.24c1.16,0,2.3,0.3,3.33,0.89
				C211.93,128.89,215.65,134.26,219.41,140.88z"/>
			<path style="fill:#DB9D3C;" d="M215.63,93.76c2.06,0.05,7.95,2.86,14.5,6.75c-6.55,3.89-12.44,6.71-14.49,6.76
				c-3.73,0-6.76-3.03-6.76-6.76C208.88,96.79,211.91,93.76,215.63,93.76z"/>
			<path style="fill:#DB9D3C;" d="M218.86,59.2c-3.66,6.68-7.31,12.09-9.05,13.17c-1.56,0.92-3.37,1.18-5.12,0.73
				c-1.75-0.46-3.22-1.56-4.13-3.12c-0.92-1.55-1.17-3.37-0.72-5.12c0.45-1.74,1.55-3.21,3.1-4.12
				C204.74,59.73,211.25,59.21,218.86,59.2z"/>
			<path style="fill:#DB9D3C;" d="M189.13,29.86c0.13,7.61-0.35,14.12-1.33,15.93c-0.89,1.57-2.34,2.69-4.09,3.17
				c-1.74,0.47-3.56,0.24-5.12-0.66c-1.57-0.89-2.7-2.34-3.17-4.08c-0.47-1.74-0.24-3.56,0.65-5.13
				C177.13,37.33,182.5,33.61,189.13,29.86z"/>
			<path style="fill:#DB9D3C;" d="M155.51,33.63c0,3.72-3.03,6.75-6.76,6.75c-3.72,0-6.75-3.03-6.75-6.75
				c0.05-2.06,2.86-7.95,6.75-14.49C152.65,25.69,155.46,31.58,155.51,33.63z"/>
			<path style="fill:#DB9D3C;" d="M120.62,39.46c0.91,1.55,1.17,3.37,0.72,5.12c-0.45,1.74-1.56,3.21-3.11,4.13
				c-1.56,0.91-3.37,1.17-5.13,0.72c-1.74-0.45-3.21-1.56-4.12-3.11c-1-1.8-1.57-8.3-1.54-15.92
				C114.12,34.07,119.53,37.71,120.62,39.46z"/>
			<path style="fill:#DB9D3C;" d="M97.2,65.55c0.47,1.74,0.24,3.56-0.65,5.13c-0.9,1.57-2.35,2.69-4.09,3.16
				c-1.74,0.48-3.56,0.25-5.13-0.65c-1.76-1.06-5.48-6.42-9.23-13.05c7.62-0.13,14.13,0.35,15.93,1.32
				C95.6,62.36,96.72,63.81,97.2,65.55z"/>
			<path style="fill:#DB9D3C;" d="M81.87,93.76c3.72,0,6.75,3.03,6.75,6.75c0,3.73-3.03,6.76-6.75,6.76
				c-2.06-0.05-7.95-2.87-14.49-6.76C73.93,96.62,79.82,93.8,81.87,93.76z"/>
			<path style="fill:#DB9D3C;" d="M96.95,131.04c0.91,1.55,1.17,3.37,0.72,5.12c-0.45,1.74-1.56,3.21-3.11,4.13
				c-1.8,1-8.33,1.54-15.91,1.53c3.66-6.67,7.31-12.09,9.05-13.17c1.55-0.92,3.37-1.17,5.12-0.72
				C94.57,128.38,96.03,129.48,96.95,131.04z"/>
			<path style="fill:#DB9D3C;" d="M122.09,156.81c0.47,1.74,0.24,3.56-0.65,5.12c-1.07,1.76-6.43,5.48-13.06,9.23
				c-0.13-7.61,0.35-14.12,1.32-15.93c0.9-1.56,2.35-2.69,4.09-3.16c0.59-0.16,1.19-0.25,1.79-0.25c1.16,0,2.31,0.31,3.34,0.9
				C120.49,153.61,121.61,155.07,122.09,156.81z"/>
			<path d="M246.16,95.06c1.79,1.24,2.85,3.28,2.85,5.45c0,2.18-1.06,4.21-2.85,5.45c-5.21,3.6-16.73,11.12-25.4,13.67
				c6.26,6.52,12.53,18.77,15.27,24.48c0.94,1.96,0.85,4.26-0.23,6.14c-1.08,1.89-3.01,3.13-5.18,3.32
				c-3.21,0.27-8.35,0.62-13.77,0.62c-5.24,0-10.74-0.33-15.06-1.35c2.2,8.77,1.56,22.51,1.11,28.82c-0.16,2.17-1.37,4.13-3.25,5.23
				c-1.03,0.61-2.19,0.92-3.36,0.92c-0.94,0-1.89-0.21-2.78-0.62c-5.96-2.76-18.98-9.21-25.37-15.61
				c-1.62,6.25-6.12,14.24-9.93,20.26v18.79c3.06-3.32,6.85-6.47,11.52-8.96c12.43-6.63,27.45-6.87,44.64-0.71
				c2.49,0.9,4.5,2.8,5.53,5.24c1.02,2.44,0.98,5.2-0.12,7.61c-1.41,3.06-14.38,30.1-37.1,35.65c-2.3,0.56-4.98,0.95-7.97,0.95
				c-4.82,0-10.43-1.03-16.5-4.08v41.46c0,5.22-4.23,9.46-9.46,9.46c-5.22,0-9.46-4.24-9.46-9.46v-29.6
				c-5.37,1.65-12.09,3.03-19.54,3.03c-5.24,0-10.82-0.68-16.56-2.42c-17.73-5.41-32.01-19.32-42.42-41.35
				c-1.13-2.4-1.21-5.16-0.21-7.61s2.98-4.38,5.47-5.3c1.69-0.63,41.66-15.18,68.49,1.13c1.69,1.02,3.27,2.14,4.77,3.35v-17.18
				c-3.61-5.73-7.86-13.22-9.66-19.32c-6.52,6.26-18.76,12.53-24.47,15.26c-0.91,0.44-1.89,0.65-2.87,0.65
				c-1.13,0-2.27-0.29-3.28-0.87c-1.89-1.08-3.13-3.02-3.31-5.18c-0.54-6.31-1.36-20.04,0.73-28.84c-4.8,1.2-11.08,1.56-16.83,1.56
				c-4.75,0-9.14-0.24-12-0.44c-2.17-0.16-4.12-1.37-5.23-3.25c-1.1-1.87-1.21-4.17-0.3-6.14c2.76-5.96,9.22-18.98,15.61-25.38
				c-8.76-2.26-20.93-10.2-26.33-13.93c-1.79-1.24-2.86-3.27-2.86-5.45c0-2.17,1.07-4.21,2.86-5.45c5.21-3.6,16.72-11.12,25.4-13.67
				c-6.26-6.52-12.53-18.76-15.27-24.47c-0.94-1.97-0.86-4.26,0.22-6.15c1.08-1.89,3.02-3.13,5.19-3.31
				c6.31-0.54,20.03-1.36,28.83,0.72c-2.2-8.77-1.57-22.5-1.11-28.82c0.16-2.17,1.37-4.12,3.24-5.23c1.87-1.1,4.17-1.22,6.15-0.3
				c5.95,2.76,18.98,9.21,25.37,15.61c2.26-8.76,10.2-20.93,13.94-26.33c1.23-1.79,3.27-2.86,5.44-2.86c2.18,0,4.21,1.07,5.45,2.86
				c3.6,5.21,11.12,16.72,13.68,25.39c6.52-6.26,18.76-12.52,24.47-15.26c1.96-0.94,4.26-0.86,6.15,0.22s3.12,3.02,3.31,5.18
				c0.54,6.31,1.36,20.04-0.73,28.84c8.77-2.2,22.51-1.57,28.82-1.11c2.17,0.15,4.13,1.37,5.23,3.24c1.11,1.87,1.22,4.17,0.3,6.14
				c-2.75,5.96-9.21,18.98-15.61,25.38C228.58,83.39,240.76,91.33,246.16,95.06z M230.13,100.51c-6.55-3.89-12.44-6.7-14.5-6.75
				c-3.72,0-6.75,3.03-6.75,6.75c0,3.73,3.03,6.76,6.76,6.76C217.69,107.22,223.58,104.4,230.13,100.51z M203.47,139.56
				c1.81,0.98,8.31,1.46,15.94,1.32c-3.76-6.62-7.48-11.99-9.24-13.05c-1.03-0.59-2.17-0.89-3.33-0.89c-0.6,0-1.2,0.08-1.79,0.24
				c-1.74,0.47-3.19,1.6-4.09,3.16c-0.9,1.57-1.13,3.39-0.65,5.13C200.78,137.21,201.91,138.67,203.47,139.56z M209.81,72.37
				c1.74-1.08,5.39-6.49,9.05-13.17c-7.61,0.01-14.12,0.53-15.92,1.54c-1.55,0.91-2.65,2.38-3.1,4.12c-0.45,1.75-0.2,3.57,0.72,5.12
				c0.91,1.56,2.38,2.66,4.13,3.12C206.44,73.55,208.25,73.29,209.81,72.37z M196.68,215.86c-7.01-1-13.05-0.17-18.05,2.5
				c-5.51,2.94-9.02,7.67-11.1,11.48c3.67,1.67,7.18,2.08,10.63,1.25C185.5,229.31,192.08,222.33,196.68,215.86z M190.07,170.62
				c0.02-7.62-0.54-14.12-1.54-15.92c-0.92-1.55-2.38-2.65-4.13-3.11c-0.56-0.14-1.13-0.21-1.7-0.21c-1.19,0-2.37,0.31-3.42,0.93
				c-1.55,0.92-2.66,2.39-3.11,4.14c-0.45,1.74-0.2,3.56,0.72,5.12C177.97,163.31,183.39,166.95,190.07,170.62z M187.8,45.79
				c0.98-1.81,1.46-8.32,1.33-15.93c-6.63,3.75-12,7.47-13.06,9.23c-0.89,1.57-1.12,3.39-0.65,5.13c0.47,1.74,1.6,3.19,3.17,4.08
				c1.56,0.9,3.38,1.13,5.12,0.66C185.46,48.48,186.91,47.36,187.8,45.79z M192.8,100.51c0-24.29-19.76-44.05-44.05-44.05
				s-44.05,19.76-44.05,44.05s19.76,44.05,44.05,44.05S192.8,124.8,192.8,100.51z M148.75,40.38c3.73,0,6.76-3.03,6.76-6.75
				c-0.05-2.05-2.86-7.94-6.76-14.49c-3.89,6.54-6.7,12.43-6.75,14.49C142,37.35,145.03,40.38,148.75,40.38z M155.51,167.39
				c0-3.72-3.03-6.75-6.76-6.75c-3.72,0-6.75,3.03-6.75,6.76c0.05,2.05,2.86,7.94,6.75,14.48
				C152.64,175.34,155.46,169.45,155.51,167.39z M136.71,239.1c-2.09-7.95-6.04-13.63-11.98-17.24
				c-11.53-7.04-29.23-5.35-41.47-2.62c7.07,11.21,15.54,18.39,25.27,21.41C119.61,244.08,130.35,241.46,136.71,239.1z
				 M121.44,161.93c0.89-1.56,1.12-3.38,0.65-5.12c-0.48-1.74-1.6-3.2-3.17-4.09c-1.03-0.59-2.18-0.9-3.34-0.9
				c-0.6,0-1.2,0.09-1.79,0.25c-1.74,0.47-3.19,1.6-4.09,3.16c-0.97,1.81-1.45,8.32-1.32,15.93
				C115.01,167.41,120.37,163.69,121.44,161.93z M121.34,44.58c0.45-1.75,0.19-3.57-0.72-5.12c-1.09-1.75-6.5-5.39-13.18-9.06
				c-0.03,7.62,0.54,14.12,1.54,15.92c0.91,1.55,2.38,2.66,4.12,3.11c1.76,0.45,3.57,0.19,5.13-0.72
				C119.78,47.79,120.89,46.32,121.34,44.58z M97.67,136.16c0.45-1.75,0.19-3.57-0.72-5.12c-0.92-1.56-2.38-2.66-4.13-3.11
				c-1.75-0.45-3.57-0.2-5.12,0.72c-1.74,1.08-5.39,6.5-9.05,13.17c7.58,0.01,14.11-0.53,15.91-1.53
				C96.11,139.37,97.22,137.9,97.67,136.16z M96.55,70.68c0.89-1.57,1.12-3.39,0.65-5.13c-0.48-1.74-1.6-3.19-3.17-4.09
				c-1.8-0.97-8.31-1.45-15.93-1.32c3.75,6.63,7.47,11.99,9.23,13.05c1.57,0.9,3.39,1.13,5.13,0.65
				C94.2,73.37,95.65,72.25,96.55,70.68z M88.62,100.51c0-3.72-3.03-6.75-6.75-6.75c-2.05,0.04-7.94,2.86-14.49,6.75
				c6.54,3.89,12.43,6.71,14.49,6.76C85.59,107.27,88.62,104.24,88.62,100.51z"/>
			<path style="fill:#D5BA2F;" d="M148.75,56.46c24.29,0,44.05,19.76,44.05,44.05s-19.76,44.05-44.05,44.05
				s-44.05-19.76-44.05-44.05S124.46,56.46,148.75,56.46z M170.53,84.9c0-3.39-2.76-6.14-6.15-6.14h-0.01
				c-3.4,0-6.14,2.75-6.14,6.14c0,3.4,2.75,6.15,6.15,6.15C167.77,91.05,170.53,88.3,170.53,84.9z M154.92,69.3
				c0-3.4-2.75-6.15-6.15-6.15h-0.01c-3.39,0-6.14,2.75-6.14,6.15c0,3.39,2.76,6.15,6.15,6.15
				C152.17,75.45,154.92,72.69,154.92,69.3z M154.92,84.9c0-3.39-2.75-6.14-6.15-6.14h-0.01c-3.39,0-6.14,2.75-6.14,6.14
				c0,3.4,2.76,6.15,6.15,6.15C152.17,91.05,154.92,88.3,154.92,84.9z"/>
			<path d="M164.38,78.76c3.39,0,6.15,2.75,6.15,6.14c0,3.4-2.76,6.15-6.15,6.15c-3.4,0-6.15-2.75-6.15-6.15
				c0-3.39,2.74-6.14,6.14-6.14H164.38z"/>
			<path style="fill:#DB9D3C;" d="M148.75,160.64c3.73,0,6.76,3.03,6.76,6.75c-0.05,2.06-2.87,7.95-6.76,14.49
				c-3.89-6.54-6.7-12.43-6.75-14.48C142,163.67,145.03,160.64,148.75,160.64z"/>
			<path d="M148.77,63.15c3.4,0,6.15,2.75,6.15,6.15c0,3.39-2.75,6.15-6.15,6.15c-3.39,0-6.15-2.76-6.15-6.15
				c0-3.4,2.75-6.15,6.14-6.15H148.77z"/>
			<path d="M148.77,78.76c3.4,0,6.15,2.75,6.15,6.14c0,3.4-2.75,6.15-6.15,6.15c-3.39,0-6.15-2.75-6.15-6.15
				c0-3.39,2.75-6.14,6.14-6.14H148.77z"/>
		</g>
		<g>
		</g>
	</g>
</g>
</svg>